<svg width="97" height="42" viewBox="0 0 97 42" fill="none" xmlns="http://www.w3.org/2000/svg">
<path d="M83.287 35.5884C83.287 38.6891 79.9029 41.2027 75.7284 41.2027C71.5539 41.2027 68.1697 38.6891 68.1697 35.5884C68.1697 32.4877 71.5539 29.9741 75.7284 29.9741C79.9029 29.9741 83.287 32.4877 83.287 35.5884Z" fill="#001689"/>
<path d="M48.5394 0C22.0447 0 0 7.95752 0 19.9881C0 32.0188 22.0447 39.9763 48.5394 39.9763C55.2305 39.9763 61.6328 39.4612 67.4626 38.5201C66.9627 37.6458 66.6697 36.6574 66.6697 35.5884C66.6697 33.4538 67.838 31.6408 69.4892 30.4144C71.1405 29.1878 73.3513 28.4741 75.7284 28.4741C78.1055 28.4741 80.3163 29.1878 81.9676 30.4144C83.1218 31.2717 84.04 32.4155 84.4882 33.7555C92.2501 30.3062 97 25.6007 97 20.0039C97 7.95752 75.0342 0 48.5394 0Z" fill="#001689"/>
<path fill-rule="evenodd" clip-rule="evenodd" d="M79.421 34.3623H76.9593V32.1606C76.9593 31.9404 76.7858 31.7675 76.5648 31.7675H74.8922C74.6712 31.7675 74.4977 31.9404 74.4977 32.1606V34.3623H72.036C71.815 34.3623 71.6415 34.5353 71.6415 34.7555V36.4224C71.6415 36.6426 71.815 36.8156 72.036 36.8156H74.4977V39.0173C74.4977 39.2375 74.6712 39.4104 74.8922 39.4104H76.5648C76.7858 39.4104 76.9593 39.2375 76.9593 39.0173V36.8156H79.421C79.642 36.8156 79.8155 36.6426 79.8155 36.4224V34.7555C79.8313 34.551 79.642 34.3623 79.421 34.3623Z" fill="white"/>
<path d="M34.2427 20.2555C35.4104 19.8781 36.2626 18.7773 36.2626 17.472C36.2626 15.8522 34.9528 14.5469 33.3275 14.5469H29.1142C28.8617 14.5469 28.6408 14.7513 28.6408 15.0187V23.7153C28.6408 23.9669 28.8459 24.1871 29.1142 24.1871H30.4871C30.7395 24.1871 30.9605 23.9827 30.9605 23.7153V20.4128H31.9862L33.9587 23.5581C34.2112 23.9512 34.6372 24.1871 35.0948 24.1871H36.5624C36.7517 24.1871 36.8622 23.9669 36.7517 23.8097L34.2427 20.2555ZM30.9605 16.4655H32.9961C33.5484 16.4655 34.006 16.9215 34.006 17.472C34.006 18.0224 33.5484 18.4785 32.9961 18.4785H30.9605V16.4655ZM56.6504 15.0029V23.7153C56.6504 23.9669 56.4453 24.1714 56.1928 24.1714H54.8199C54.5674 24.1714 54.3623 23.9669 54.3623 23.7153V17.3619C54.2834 17.3462 54.2992 17.3462 54.2203 17.3304L52.232 21.9382C52.0742 22.2999 51.727 22.5201 51.3483 22.5201H50.5909C50.1964 22.5201 49.8492 22.2842 49.7072 21.9382L47.7347 17.3304C47.6558 17.3462 47.6715 17.3462 47.5926 17.3619V23.7153C47.5926 23.9669 47.3875 24.1714 47.135 24.1714H45.7622C45.5097 24.1714 45.3045 23.9669 45.3045 23.7153V15.0029C45.3045 14.7513 45.5097 14.5469 45.7622 14.5469H47.64C48.1292 14.5469 48.571 14.8457 48.7604 15.286L50.9538 20.7116C50.9854 20.7116 50.9854 20.7116 51.0011 20.7116L53.163 15.3017C53.3524 14.8457 53.7942 14.5469 54.2834 14.5469H56.2086C56.4453 14.5469 56.6504 14.7513 56.6504 15.0029ZM76.912 15.0029V23.7153C76.912 23.9669 76.7068 24.1714 76.4544 24.1714H75.0026C74.4818 24.1714 74.0084 23.904 73.7402 23.448L70.1423 17.3933C70.095 17.4091 70.095 17.4091 70.0477 17.4248V23.7153C70.0477 23.9669 69.8425 24.1714 69.59 24.1714H68.2172C67.9647 24.1714 67.7596 23.9669 67.7596 23.7153V15.0029C67.7596 14.7513 67.9647 14.5469 68.2172 14.5469H69.6847C70.2055 14.5469 70.6789 14.8142 70.9471 15.2546L74.545 21.1519C74.5923 21.1362 74.5923 21.1362 74.6397 21.1205V15.0029C74.6397 14.7513 74.8448 14.5469 75.0973 14.5469H76.4701C76.7068 14.5469 76.912 14.7513 76.912 15.0029ZM24.7589 15.2388C24.6327 14.8299 24.2382 14.5469 23.8121 14.5469H22.2025C21.7765 14.5469 21.382 14.8299 21.2557 15.2388L18.5416 23.731C18.4784 23.9512 18.6362 24.1871 18.873 24.1871H19.9933C20.4825 24.1871 20.9086 23.8569 21.0506 23.4008L21.3662 22.3314H24.68L24.9956 23.4008C25.1376 23.8726 25.5637 24.1871 26.0529 24.1871H27.1733C27.41 24.1871 27.5678 23.9669 27.5046 23.731L24.7589 15.2388ZM21.9027 20.3971L22.9758 16.6857C23.0073 16.6857 22.9915 16.6857 23.0231 16.6857L24.0961 20.3971H21.9027ZM63.925 15.2388C63.7988 14.8299 63.4043 14.5469 62.9782 14.5469H61.3686C60.9426 14.5469 60.5481 14.8299 60.4218 15.2388L57.7077 23.731C57.6445 23.9512 57.8023 24.1871 58.039 24.1871H59.1594C59.6486 24.1871 60.0747 23.8569 60.2167 23.4008L60.5323 22.3314H63.8461L64.1617 23.4008C64.3037 23.8726 64.7298 24.1871 65.219 24.1871H66.3393C66.576 24.1871 66.7338 23.9669 66.6707 23.731L63.925 15.2388ZM61.0688 20.3971L62.1418 16.6857C62.1734 16.6857 62.1576 16.6857 62.1892 16.6857L63.2622 20.3971H61.0688ZM43.979 15.0029V16.1038C43.979 16.3554 43.7739 16.5598 43.5214 16.5598H41.7382V23.6996C41.7382 23.9512 41.5331 24.1557 41.2806 24.1557H39.9078C39.6553 24.1557 39.4501 23.9512 39.4501 23.6996V16.5598H37.667C37.4145 16.5598 37.2094 16.3554 37.2094 16.1038V15.0029C37.2094 14.7513 37.4145 14.5469 37.667 14.5469H43.553C43.7739 14.5469 43.979 14.7513 43.979 15.0029ZM17.3581 15.0029V23.7153C17.3581 23.9669 17.1529 24.1714 16.9004 24.1714H15.5276C15.2751 24.1714 15.07 23.9669 15.07 23.7153V20.3971H11.8035V23.7153C11.8035 23.9669 11.5983 24.1714 11.3459 24.1714H9.973C9.72052 24.1714 9.51538 23.9669 9.51538 23.7153V15.0029C9.51538 14.7513 9.72052 14.5469 9.973 14.5469H11.3459C11.5983 14.5469 11.8035 14.7513 11.8035 15.0029V18.4785H15.07V15.0029C15.07 14.7513 15.2751 14.5469 15.5276 14.5469H16.9004C17.1529 14.5469 17.3581 14.7513 17.3581 15.0029ZM87.5004 15.0029V23.7153C87.5004 23.9669 87.2952 24.1714 87.0428 24.1714H85.591C85.0703 24.1714 84.5969 23.904 84.3286 23.448L80.7308 17.3933C80.6834 17.4091 80.6834 17.4091 80.6361 17.4248V23.7153C80.6361 23.9669 80.4309 24.1714 80.1785 24.1714H78.8056C78.5531 24.1714 78.348 23.9669 78.348 23.7153V15.0029C78.348 14.7513 78.5531 14.5469 78.8056 14.5469H80.2731C80.7939 14.5469 81.2673 14.8142 81.5355 15.2546L85.1334 21.1519C85.1807 21.1362 85.1807 21.1362 85.2281 21.1205V15.0029C85.2281 14.7513 85.4332 14.5469 85.6857 14.5469H87.0586C87.2953 14.5469 87.5004 14.7513 87.5004 15.0029Z" fill="white"/>
</svg>
